:SAMPLES-PER-SECOND 30
:FULLY-SPECIFIED
:DEGREES
614
root  87.0763 39.7673 -3.94479 -4.58398 -72.5577 7.50647
RightUpLeg  -2.312 -11.2876 -6.40089
RightLeg  12.3549 -17.2008 2.29746
RightFoot  -10.8998 -0.0758967 0.522046
RightToes  -4.65663e-010 0 -3.6325e-017
Spine  12.5043 0.147725 8.80983
Spine1  2.87036 2.1354 -5.33965
HEad  -10.5668 -0.592888 -4.60254
LeftShoulder1  7.71128 -11.1991 -45.7137
LeftArm  -9.28216 21.4192 -30.9962
LeftForeArm  35.8146 -24.8237 -3.43756
LeftHand  -0.244104 0.0205437 5.32207
RightShoulder  4.37495 7.3359 34.4082
RightArm  7.41408 -15.3152 42.0695
RightForeArm  4.72886 46.4474 11.4734
RightHand  -1.68334 3.81666 -21.2403
LeftUpLeg  -15.9717 12.3286 -2.58932
LeftLeg  21.3522 -0.289405 0.213924
LeftFoot  -5.5364 0.337633 -5.89423
LeftToes  -5.82109e-011 -4.83791e-012 -1.00937e-011
615
root  87.3875 39.7577 -3.89247 -5.62793 -76.4871 8.38855
RightUpLeg  -3.25839 -10.9012 -6.07418
RightLeg  12.2688 -14.2439 2.48004
RightFoot  -10.6187 -0.0721115 0.0892038
RightToes  -4.65663e-010 0 -3.6325e-017
Spine  12.3943 0.537827 9.10085
Spine1  2.85377 2.56273 -5.2279
HEad  -11.2764 -2.65171 -3.83785
LeftShoulder1  8.02888 -11.4432 -46.8614
LeftArm  -9.09227 20.0465 -29.6933
LeftForeArm  34.3686 -23.9763 -3.34977
LeftHand  -0.244104 0.0205437 5.32207
RightShoulder  4.37518 7.39893 34.1779
RightArm  7.5707 -15.1346 42.0818
RightForeArm  -0.237172 40.8771 9.72877
RightHand  -2.20238 5.8905 -22.7106
LeftUpLeg  -13.9079 6.99149 -1.68185
LeftLeg  21.0401 0.323093 0.458074
LeftFoot  -7.23884 0.221647 -4.93149
LeftToes  -5.82109e-011 -4.83791e-012 -1.00937e-011
616
root  87.5908 39.8266 -3.80127 -7.74847 -81.0569 10.1851
RightUpLeg  -3.56873 -10.3473 -5.80726
RightLeg  11.3461 -10.42 3.03899
RightFoot  -9.6584 -0.0623305 -0.233445
RightToes  -4.65663e-010 0 -3.6325e-017
Spine  12.1599 0.860845 9.69814
Spine1  2.96166 3.1999 -6.33003
HEad  -11.3904 -3.22789 -3.02714
LeftShoulder1  7.79559 -11.1758 -46.3128
LeftArm  -9.72483 18.9516 -29.7457
LeftForeArm  33.7479 -22.5544 -3.20281
LeftHand  -0.244104 0.0205437 5.32207
RightShoulder  4.49155 7.65531 34.2975
RightArm  8.47657 -13.8889 42.1659
RightForeArm  -4.81504 32.1376 7.25062
RightHand  -2.27072 6.64342 -21.9699
LeftUpLeg  -10.727 5.14536 -1.65138
LeftLeg  18.1433 2.65032 1.27575
LeftFoot  -8.01072 0.10352 -1.90515
LeftToes  -5.82109e-011 -4.83791e-012 -1.00937e-011
617
root  87.7093 39.9197 -3.7341 -13.6915 -85.6744 15.7375
RightUpLeg  -3.42093 -9.73416 -5.463
RightLeg  9.95185 -6.46566 3.73748
RightFoot  -8.37178 -0.0567601 -0.0128277
RightToes  -4.65663e-010 0 -3.6325e-017
Spine  11.916 1.37161 9.17901
Spine1  2.72829 3.61338 -6.15855
HEad  -10.3526 -2.36609 -2.54523
LeftShoulder1  7.73825 -11.0981 -46.2122
LeftArm  -10.689 18.6261 -29.0062
LeftForeArm  34.4046 -21.2809 -3.1337
LeftHand  -0.244104 0.0205437 5.32207
RightShoulder  4.69194 7.94657 35.0097
RightArm  5.5259 -11.8234 41.2897
RightForeArm  -6.89292 20.7274 5.7706
RightHand  -2.41329 7.83538 -21.2686
LeftUpLeg  -7.54869 4.88147 -1.61737
LeftLeg  14.1745 5.72486 1.61485
LeftFoot  -8.33174 0.0155502 1.26556
LeftToes  -5.82109e-011 -4.83791e-012 -1.00937e-011
618
root  87.8099 39.9997 -3.75264 -46.3002 -88.6101 47.9291
RightUpLeg  -2.96564 -9.26806 -5.27566
RightLeg  8.57997 -3.71529 4.18223
RightFoot  -7.34041 -0.0588919 0.263966
RightToes  -4.65663e-010 0 -3.6325e-017
Spine  11.4337 1.51449 6.93386
Spine1  2.72402 3.12041 -4.23293
HEad  -9.28772 -0.249673 -2.05867
LeftShoulder1  7.68965 -11.0455 -46.0844
LeftArm  -11.6847 18.3383 -27.7978
LeftForeArm  35.4716 -19.9467 -3.10149
LeftHand  -0.244104 0.0205437 5.32207
RightShoulder  4.96291 8.27329 36.1581
RightArm  -9.82448 -9.69929 39.1974
RightForeArm  -2.85094 9.68339 7.31157
RightHand  -3.15838 10.0925 -23.6164
LeftUpLeg  -5.36678 4.53147 -1.12805
LeftLeg  11.1876 8.93711 0.925968
LeftFoot  -7.92913 -0.0316497 2.6788
LeftToes  -5.82109e-011 -4.83791e-012 -1.00937e-011
619
root  87.9334 40.0778 -3.84315 -110.457 -88.7874 111.693
RightUpLeg  -2.50969 -9.04834 -5.34576
RightLeg  7.64492 -2.64488 4.23355
RightFoot  -6.57892 -0.0451525 0.049068
RightToes  -4.65663e-010 0 -3.6325e-017
Spine  11.2336 1.34504 3.26039
Spine1  2.18555 1.92273 -0.927563
HEad  -8.10689 1.67342 -1.17646
LeftShoulder1  7.73318 -11.1605 -45.9796
LeftArm  -12.3983 17.6944 -25.6992
LeftForeArm  35.9703 -17.9268 -3.16423
LeftHand  -0.244104 0.0205437 5.32207
RightShoulder  5.02458 8.21444 36.8762
RightArm  -18.413 -9.46118 37.0985
RightForeArm  -12.3566 5.12592 5.51036
RightHand  -4.20117 12.1428 -27.6513
LeftUpLeg  -4.27353 5.47378 -0.525397
LeftLeg  9.69065 9.67703 -0.286746
LeftFoot  -6.75045 -0.0425496 2.10167
LeftToes  -5.82109e-011 -4.83791e-012 -1.00937e-011
620
root  88.0625 40.1282 -3.91245 -118.312 -88.3528 119.269
RightUpLeg  -2.3592 -8.98122 -5.39226
RightLeg  7.33317 -2.46282 4.12076
RightFoot  -6.01294 -0.0159445 -0.381731
RightToes  -4.65663e-010 0 -3.6325e-017
Spine  10.9228 0.61883 0.63288
Spine1  1.84882 0.523881 1.18905
HEad  -7.40857 2.49421 0.252463
LeftShoulder1  7.22586 -10.6949 -44.2975
LeftArm  -13.8034 16.5076 -24.0079
LeftForeArm  35.7599 -15.4115 -3.20928
LeftHand  -0.244104 0.0205437 5.32207
RightShoulder  4.81186 7.95027 36.0154
RightArm  -23.3952 -10.2785 35.8781
RightForeArm  -22.3519 4.4959 4.43919
RightHand  -4.56287 12.9314 -28.6505
LeftUpLeg  -3.63765 6.4235 0.0318625
LeftLeg  8.70714 9.16993 -1.4357
LeftFoot  -5.75461 -0.0294179 1.29947
LeftToes  -5.82109e-011 -4.83791e-012 -1.00937e-011
621
root  88.162 40.1578 -3.90848 -131.194 -88.0053 131.887
RightUpLeg  -2.25398 -8.8325 -5.341
RightLeg  7.12082 -2.09478 4.05459
RightFoot  -5.49345 -0.00383263 -0.54521
RightToes  -4.65663e-010 0 -3.6325e-017
Spine  10.5712 0.0549448 -0.360382
Spine1  1.58991 -0.228916 1.63351
HEad  -6.91455 2.66718 1.39711
LeftShoulder1  6.40337 -9.88215 -41.4715
LeftArm  -15.2828 15.308 -22.412
LeftForeArm  34.8424 -13.1068 -3.08069
LeftHand  -0.244104 0.0205437 5.32207
RightShoulder  4.23649 7.24807 33.4523
RightArm  -26.8702 -11.2248 34.8581
RightForeArm  -24.5041 4.40104 3.47929
RightHand  -3.77145 11.6449 -25.5759
LeftUpLeg  -2.92679 5.94982 0.280091
LeftLeg  7.63677 9.96104 -2.07156
LeftFoot  -5.34107 -0.0496596 1.55899
LeftToes  -5.82109e-011 -4.83791e-012 -1.00937e-011
622
root  88.2112 40.186 -3.85967 -151.045 -87.0768 151.262
RightUpLeg  -1.85874 -8.56075 -5.29006
RightLeg  6.78933 -1.12338 3.96531
RightFoot  -5.03474 -0.00566724 -0.491517
RightToes  -4.65663e-010 0 -3.6325e-017
Spine  10.1023 -0.102407 -0.51893
Spine1  1.6075 -0.340648 1.2697
HEad  -6.44325 2.58147 2.0078
LeftShoulder1  5.50198 -8.8732 -38.2638
LeftArm  -16.2031 14.3832 -20.3592
LeftForeArm  33.7113 -11.5617 -2.84084
LeftHand  -0.244104 0.0205437 5.32207
RightShoulder  3.65512 6.53811 30.4379
RightArm  -29.2899 -11.5869 32.3073
RightForeArm  -22.3304 3.71744 2.38342
RightHand  -3.02454 10.1613 -22.6702
LeftUpLeg  -1.92194 4.92052 0.290851
LeftLeg  6.6758 12.1812 -2.28919
LeftFoot  -5.11327 -0.0919919 2.25946
LeftToes  -5.82109e-011 -4.83791e-012 -1.00937e-011
623
root  88.2142 40.2074 -3.80815 -160.777 -85.9242 160.332
RightUpLeg  -1.24959 -8.34689 -5.28256
RightLeg  6.58535 -0.0193953 3.82665
RightFoot  -4.73855 -0.00318404 -0.511626
RightToes  -4.65663e-010 0 -3.6325e-017
Spine  9.96216 0.0539173 -0.795594
Spine1  1.17515 -0.230772 1.4474
HEad  -5.4508 2.53679 2.01447
LeftShoulder1  4.672 -7.87048 -34.9847
LeftArm  -16.5996 13.9665 -17.7044
LeftForeArm  32.9839 -10.7144 -2.60208
LeftHand  -0.244104 0.0205437 5.32207
RightShoulder  3.09741 5.76662 27.385
RightArm  -30.1774 -11.7489 27.9451
RightForeArm  -22.7761 3.25882 1.836
RightHand  -3.04506 10.0276 -22.9612
LeftUpLeg  -0.803633 4.65534 0.381614
LeftLeg  6.09447 13.8892 -2.48487
LeftFoot  -4.87795 -0.107188 2.41122
LeftToes  -5.82109e-011 -4.83791e-012 -1.00937e-011
624
root  88.1909 40.2145 -3.76213 -165.445 -85.1778 164.464
RightUpLeg  -0.710736 -8.27878 -5.24544
RightLeg  6.47144 0.705823 3.77377
RightFoot  -4.54048 0.0085931 -0.694571
RightToes  -4.65663e-010 0 -3.6325e-017
Spine  9.69165 0.235924 -1.04389
Spine1  0.489109 -0.141697 1.97456
HEad  -3.85678 2.64002 1.58996
LeftShoulder1  4.02916 -7.17977 -31.6488
LeftArm  -16.8367 13.9295 -14.4282
LeftForeArm  31.9182 -10.1429 -2.35326
LeftHand  -0.244104 0.0205437 5.32207
RightShoulder  2.54798 4.86949 24.2615
RightArm  -29.8209 -11.8075 22.5811
RightForeArm  -26.047 3.34774 1.90836
RightHand  -3.27245 10.2724 -24.243
LeftUpLeg  0.0714017 4.92414 0.628304
LeftLeg  5.77585 14.3646 -2.74106
LeftFoot  -4.86676 -0.0973396 2.23903
LeftToes  -5.82109e-011 -4.83791e-012 -1.00937e-011
625
root  88.1648 40.2092 -3.71507 -169.183 -84.6321 167.896
RightUpLeg  -0.405791 -8.20842 -5.1178
RightLeg  6.39971 1.11294 3.76819
RightFoot  -4.40394 0.0263207 -0.970006
RightToes  -4.65663e-010 0 -3.6325e-017
Spine  9.45349 0.468382 -1.17192
Spine1  -0.648414 0.0179596 2.49413
HEad  -1.89145 2.93765 0.886215
LeftShoulder1  3.55909 -6.80279 -28.4337
LeftArm  -16.8476 14.1239 -10.609
LeftForeArm  29.7034 -9.73535 -2.17014
LeftHand  -0.244104 0.0205437 5.32207
RightShoulder  1.94213 3.67169 20.6729
RightArm  -29.1139 -11.5785 17.3901
RightForeArm  -27.3809 3.6926 2.06592
RightHand  -3.29442 10.2488 -24.4307
LeftUpLeg  0.557081 5.05653 0.782359
LeftLeg  5.70076 14.6333 -2.77859
LeftFoot  -5.13447 -0.0978285 2.37673
LeftToes  -5.82109e-011 -4.83791e-012 -1.00937e-011
